<svg width="90" height="63" viewBox="0 0 90 63" fill="none" xmlns="http://www.w3.org/2000/svg">
<g filter="url(#filter0_d_2859_7)">
<rect width="90" height="60" rx="9" fill="url(#paint0_linear_2859_7)"/>
<rect x="1.5" y="1.5" width="87" height="57" rx="7.5" stroke="#EA9317" stroke-width="3"/>
</g>
<g filter="url(#filter1_d_2859_7)">
<path d="M44.1156 9.67634C44.4908 8.96519 45.5092 8.96519 45.8844 9.67634L51.4948 20.31C51.6395 20.5842 51.9032 20.7758 52.2088 20.8287L64.0556 22.8785C64.8479 23.0156 65.1627 23.9842 64.6023 24.5608L56.2228 33.1825C56.0067 33.4049 55.9059 33.7149 55.9501 34.0219L57.6615 45.9223C57.7759 46.7182 56.952 47.3168 56.2304 46.9621L45.4412 41.657C45.163 41.5201 44.837 41.5201 44.5588 41.657L33.7696 46.9621C33.048 47.3168 32.2241 46.7182 32.3385 45.9223L34.0499 34.0219C34.0941 33.7149 33.9933 33.4049 33.7772 33.1825L25.3977 24.5608C24.8373 23.9842 25.1521 23.0156 25.9444 22.8785L37.7912 20.8287C38.0968 20.7758 38.3605 20.5842 38.5052 20.31L44.1156 9.67634Z" fill="white"/>
</g>
<defs>
<filter id="filter0_d_2859_7" x="0" y="0" width="90" height="63" filterUnits="userSpaceOnUse" color-interpolation-filters="sRGB">
<feFlood flood-opacity="0" result="BackgroundImageFix"/>
<feColorMatrix in="SourceAlpha" type="matrix" values="0 0 0 0 0 0 0 0 0 0 0 0 0 0 0 0 0 0 127 0" result="hardAlpha"/>
<feOffset dy="3"/>
<feComposite in2="hardAlpha" operator="out"/>
<feColorMatrix type="matrix" values="0 0 0 0 0.745833 0 0 0 0 0.350413 0 0 0 0 0 0 0 0 1 0"/>
<feBlend mode="normal" in2="BackgroundImageFix" result="effect1_dropShadow_2859_7"/>
<feBlend mode="normal" in="SourceGraphic" in2="effect1_dropShadow_2859_7" result="shape"/>
</filter>
<filter id="filter1_d_2859_7" x="20.5138" y="5.54307" width="48.9725" height="47.1236" filterUnits="userSpaceOnUse" color-interpolation-filters="sRGB">
<feFlood flood-opacity="0" result="BackgroundImageFix"/>
<feColorMatrix in="SourceAlpha" type="matrix" values="0 0 0 0 0 0 0 0 0 0 0 0 0 0 0 0 0 0 127 0" result="hardAlpha"/>
<feOffset dy="1"/>
<feGaussianBlur stdDeviation="2.3"/>
<feComposite in2="hardAlpha" operator="out"/>
<feColorMatrix type="matrix" values="0 0 0 0 0 0 0 0 0 0 0 0 0 0 0 0 0 0 0.5 0"/>
<feBlend mode="normal" in2="BackgroundImageFix" result="effect1_dropShadow_2859_7"/>
<feBlend mode="normal" in="SourceGraphic" in2="effect1_dropShadow_2859_7" result="shape"/>
</filter>
<linearGradient id="paint0_linear_2859_7" x1="4.5" y1="2.5" x2="86.5" y2="60" gradientUnits="userSpaceOnUse">
<stop stop-color="#F7B719"/>
<stop offset="1" stop-color="#FF8007"/>
</linearGradient>
</defs>
</svg>
