<svg width="36" height="36" viewBox="0 0 36 36" fill="none" xmlns="http://www.w3.org/2000/svg">
<path d="M14.245 13.0356C14.245 12.2658 15.0784 11.7847 15.745 12.1696L24.7986 17.3967C25.4653 17.7816 25.4653 18.7438 24.7986 19.1287L15.745 24.3558C15.0784 24.7407 14.245 24.2596 14.245 23.4898L14.245 13.0356Z" fill="white"/>
<path d="M32.7014 11.2432C32.784 11.5067 33.0646 11.6533 33.3281 11.5706C33.5916 11.488 33.7382 11.2074 33.6555 10.9439L32.7014 11.2432ZM2.38075 11.33C2.51136 11.5733 2.81447 11.6647 3.05777 11.5341L7.02263 9.40572C7.26593 9.27511 7.35729 8.972 7.22668 8.7287C7.09608 8.48539 6.79296 8.39403 6.54966 8.52464L3.02534 10.4165L1.13347 6.8922C1.00286 6.6489 0.699744 6.55754 0.456441 6.68815C0.213138 6.81876 0.12178 7.12187 0.252387 7.36517L2.38075 11.33ZM3.29836 24.7569C3.2157 24.4934 2.93509 24.3468 2.67161 24.4295C2.40813 24.5121 2.26155 24.7928 2.34422 25.0562L3.29836 24.7569ZM33.619 24.6701C33.4884 24.4268 33.1852 24.3354 32.9419 24.466L28.9771 26.5944C28.7338 26.725 28.6424 27.0281 28.773 27.2714C28.9036 27.5147 29.2068 27.6061 29.4501 27.4755L32.9744 25.5836L34.8663 29.1079C34.9969 29.3512 35.3 29.4426 35.5433 29.312C35.7866 29.1813 35.8779 28.8782 35.7473 28.6349L33.619 24.6701ZM33.6555 10.9439C31.4411 3.88563 24.6027 0.493804 17.8964 0.536161C11.1938 0.578495 4.42095 4.05344 2.34256 10.9493L3.30002 11.2378C5.21341 4.88947 11.4896 1.57665 17.9028 1.53614C24.3123 1.49566 30.6566 4.72593 32.7014 11.2432L33.6555 10.9439ZM2.34422 25.0562C4.55865 32.1145 11.397 35.5063 18.1033 35.4639C24.8059 35.4216 31.5788 31.9467 33.6572 25.0508L32.6997 24.7623C30.7863 31.1106 24.5101 34.4235 18.097 34.464C11.6874 34.5044 5.34308 31.2742 3.29836 24.7569L2.34422 25.0562Z" fill="white"/>
</svg>
