<svg width="364" height="329" viewBox="0 0 364 329" fill="none" xmlns="http://www.w3.org/2000/svg">
<path d="M174.105 14.164C177.52 7.9262 186.48 7.9262 189.895 14.164L233.959 94.6586C238.019 102.075 245.319 107.162 253.683 108.402L347.26 122.276C354.717 123.382 357.592 132.614 352.082 137.758L286.738 198.752C280.107 204.942 277.027 214.049 278.54 222.993L293.147 309.325C294.361 316.503 286.994 322.078 280.417 318.958L193.57 277.771C186.247 274.298 177.753 274.298 170.43 277.771L83.5835 318.958C77.0057 322.078 69.6386 316.503 70.8531 309.325L85.4596 222.993C86.973 214.049 83.8933 204.942 77.2616 198.752L11.9184 137.758C6.40818 132.614 9.28347 123.381 16.7396 122.276L110.317 108.402C118.681 107.162 125.981 102.075 130.041 94.6586L174.105 14.164Z" stroke="#004373" stroke-width="18"/>
</svg>
